# xmcd
#
# Track frame offsets: 
#        150
#        18430
#        33270
#        51335
#        67090
#        82652
#        97267
#        114410
#        129012
#        145110
#        161140
#        181512
#
# Disc length: 2707 seconds
#
# Revision: 1
# Processed by: cddbd v1.5.1PL2 Copyright (c) Steve Scherf et al.
# Submitted via: ExactAudioCopy v0.95b4
#
DISCID=940a910c
DTITLE=Lonestar - Lonely Grill
DYEAR=1900
DGENRE=Country
TTITLE0=Saturday Night
TTITLE1=Simple As That
TTITLE2=Amazed
TTITLE3=What About Now
TTITLE4=Tell Her
TTITLE5=Don't Let's Talk About Lisa
TTITLE6=I've Gotta Find You
TTITLE7=You Don't Know What Love Is
TTITLE8=All The Way
TTITLE9=Smile
TTITLE10=Lonely Grill
TTITLE11=Everything's Changed
EXTD=From Naudia\n
EXTT0=
EXTT1=
EXTT2=
EXTT3=
EXTT4=
EXTT5=
EXTT6=
EXTT7=
EXTT8=
EXTT9=
EXTT10=
EXTT11=
PLAYORDER=
